<?xml version="1.0" encoding="UTF-8"?>
<svg xmlns="http://www.w3.org/2000/svg" viewBox="0 0 20 20">
	<style>
		path { fill: #000000; }
		@media (prefers-color-scheme: dark) {
		path { fill: #ffffff; }
		}
	</style>
	<path d="M20,10C20,4.48,15.52,0,10,0S0,4.48,0,10s4.48,10,10,10,10-4.48,10-10ZM16.26,9.62c.21.51-.04,1.09-.55,1.3l-4.58,1.85c-.72.29-1.53.29-2.25,0-1.54-.62-2.28-2.37-1.66-3.91s2.37-2.28,3.91-1.66l4.58,1.85c.25.1.45.3.55.55ZM6.87,3.17c-.1-.26.03-.55.29-.65,3.91-1.49,8.31.29,10.08,4.08.06.13.06.27.01.4-.1.26-.4.38-.65.28L7.15,3.45c-.13-.05-.23-.16-.28-.29ZM3.75,14.99c-2.33-2.92-2.33-7.07,0-9.99.28-.35.75-.47,1.16-.3l1.68.68c.07.03.14.08.19.14.18.21.16.52-.05.71-2.09,1.81-2.31,4.97-.5,7.05.15.18.32.35.5.5.06.05.11.12.14.19.1.26-.02.55-.28.65l-1.68.68c-.41.17-.88.04-1.16-.3ZM6.87,17.2c-.1-.26.02-.55.28-.65l9.45-3.82c.13-.05.27-.05.4.01.25.12.36.42.24.67-1.78,3.79-6.17,5.57-10.08,4.08-.13-.05-.23-.15-.29-.28Z" />
</svg>